<svg width="30" height="30" viewBox="0 0 30 30" fill="none" xmlns="http://www.w3.org/2000/svg">
<path fill-rule="evenodd" clip-rule="evenodd" d="M28.8896 5.61811C29.287 3.6809 27.3842 2.07104 25.5396 2.78375L2.92812 11.52C0.868139 12.3159 0.776351 15.1965 2.78147 16.1219L7.70562 18.3946L10.0481 26.5932C10.1698 27.0191 10.5077 27.3489 10.9365 27.46C11.3652 27.571 11.8207 27.447 12.1339 27.1338L15.7422 23.5254L20.7969 27.3164C22.2641 28.4168 24.3774 27.6153 24.7459 25.8186L28.8896 5.61811ZM3.82912 13.852L26.4406 5.11575L22.2969 25.3164L16.375 20.8749C15.8774 20.5016 15.181 20.5511 14.7411 20.991L13.1956 22.5365L13.66 19.9826L22.7589 10.8838C23.2017 10.441 23.2485 9.73882 22.8684 9.24116C22.4882 8.74349 21.7986 8.6039 21.2549 8.9146L8.68904 16.095L3.82912 13.852ZM10.2212 18.0989L10.9792 20.7519L11.2702 19.1512C11.3157 18.9011 11.4363 18.6707 11.6161 18.491L14.391 15.7162L10.2212 18.0989Z" fill="#D4D4D4"/>
</svg>
